PathFileType	4	(X/Y/Z)	/Users/rkoike/Documents/python/sports2d/worker-zone-detection_Sports2D/worker-zone-detection_Sports2D_px_person01.trc
DataRate	CameraRate	NumFrames	NumMarkers	Units	OrigDataRate	OrigDataStartFrame	OrigNumFrames
60	60	5	22	m	60	1705	4549
Frame#	Time	Hip			RHip			RKnee			RAnkle			RBigToe			RSmallToe			RHeel			LHip			LKnee			LAnkle			LBigToe			LSmallToe			LHeel			Neck			Head			Nose			RShoulder			RElbow			RWrist			LShoulder			LElbow			LWrist			
		X1	Y1	Z1	X2	Y2	Z2	X3	Y3	Z3	X4	Y4	Z4	X5	Y5	Z5	X6	Y6	Z6	X7	Y7	Z7	X8	Y8	Z8	X9	Y9	Z9	X10	Y10	Z10	X11	Y11	Z11	X12	Y12	Z12	X13	Y13	Z13	X14	Y14	Z14	X15	Y15	Z15	X16	Y16	Z16	X17	Y17	Z17	X18	Y18	Z18	X19	Y19	Z19	X20	Y20	Z20	X21	Y21	Z21	X22	Y22	Z22
1705	28.416666666666668	482.0603527200396	776.8993050256	0.0	527.4629325273987	772.7423212780761	0.0	523.3983228100815	908.3309436773276	0.0	530.3883822230329	1042.4322733137637	0.0	521.4718582775537	1037.9881019493914	0.0	547.0929563113053	1045.3561853587933	0.0	533.5691323700976	1060.2930549666673	0.0	441.22785053551235	780.2070865637787	0.0	444.24825721061023	892.2012457735082	0.0	458.576123699416	1008.9867192615144	0.0	435.6328953523211	1014.7201165916985	0.0	424.28470997347563	1023.5896188318395	0.0	465.51933206362077	1027.7418643510503	0.0	463.6799619951146	509.5514339655186	0.0	448.89781842470023	391.96921201498395	0.0	440.7439235296712	471.73620941876305	0.0	553.674737603588	554.6058283542883	0.0	583.3446560810955	666.1291831297444	0.0	547.0054363665338	710.1771218376408	0.0	384.6568558761725	578.4553035298137	0.0	367.87284175160624	702.8550611112424	0.0	369.49270430135545	795.4008929228029	0.0
1706	28.433333333333334	480.6338386239543	774.8044283356563	0.0	526.2294902607265	769.2777833290784	0.0	522.7472815146398	906.864646101118	0.0	530.2917818657922	1041.4035270493332	0.0	521.7449795293724	1036.009912137427	0.0	548.6207375063019	1043.5582408739629	0.0	532.8883488494553	1059.052490440632	0.0	440.068149203257	776.8848307420442	0.0	443.51992228705984	890.6525163809561	0.0	452.5367765365894	1002.9103563521891	0.0	429.5640201697828	1004.6567766006663	0.0	417.12154804192795	1013.2530754827458	0.0	458.73703260465544	1021.4702581390825	0.0	461.5623756298302	507.5738427607536	0.0	446.5589902496757	390.59164415173035	0.0	439.5876989693521	470.96045443501106	0.0	551.7538272857043	552.3123390902554	0.0	581.1673656416592	663.1454887900263	0.0	546.4672223473392	709.2056351153	0.0	382.5137207171205	576.1815448189196	0.0	365.9957122535004	700.7983597305591	0.0	367.50661090234166	792.938955550198	0.0
1707	28.45	479.57089382619756	772.9206841495223	0.0	525.244808701058	766.2487996366023	0.0	522.1016363574814	905.6644824000363	0.0	530.2546312057198	1040.4762417523993	0.0	522.1206917645816	1034.178808528686	0.0	549.7924972362667	1042.2364444791858	0.0	532.2231179943914	1058.0502503037153	0.0	439.1046875126791	774.1660918009912	0.0	442.4963460679675	889.5396018675134	0.0	446.6041039758618	996.064534088436	0.0	424.93236842673684	993.1510328546062	0.0	411.3116799917331	1002.0829033900835	0.0	451.89620385660305	1014.3320196918631	0.0	459.4000499112072	505.81274342336934	0.0	444.3407916360538	389.4444794815891	0.0	438.4023241828804	470.1137036685998	0.0	549.6939441367156	550.1466710675056	0.0	578.8638869198168	660.2360187191713	0.0	545.8244292781004	708.2429972287748	0.0	380.44261827084046	574.1008766140433	0.0	364.24487672093704	699.1909814677755	0.0	365.4676296758235	790.6765400681379	0.0
1708	28.466666666666665	478.73890351082895	771.3123260817125	0.0	524.3387600481192	763.7584705135474	0.0	521.4783980409649	904.8296157016091	0.0	530.25196800413	1039.7851362861766	0.0	522.5786114571337	1032.7921908970616	0.0	550.4338194878786	1041.64704186976	0.0	531.6242941642975	1057.4103216105132	0.0	438.23735594272773	772.1350621489083	0.0	441.14110154841615	888.726300081907	0.0	440.81457693409493	988.4635528953618	0.0	421.53684725155165	980.9245090383638	0.0	406.6762132545913	990.6938279422966	0.0	445.1545310693591	1006.3756956766612	0.0	457.2006595895218	504.3714030823727	0.0	442.20034437600816	388.52685284077006	0.0	436.9968576887598	469.28252590862525	0.0	547.5099147320326	548.301936988759	0.0	576.4361388468367	657.5510963354008	0.0	544.914875369779	707.0031714654962	0.0	378.36255835323885	572.393191842905	0.0	362.632225169526	698.0519363468204	0.0	363.3909247337679	788.6382026762436	0.0
1709	28.483333333333334	477.9517552943484	769.9019277037727	0.0	523.344068453744	761.7038251674301	0.0	520.8674607942452	904.2677651664095	0.0	530.2778838723683	1039.3717790377175	0.0	523.2440311689548	1032.0869851153248	0.0	550.6418864594954	1041.8818241355614	0.0	531.162611700312	1057.1047151727137	0.0	437.37055720671833	770.6638823707636	0.0	439.53262035760395	887.957676785173	0.0	435.30231308442904	980.3368307320716	0.0	419.0948822102337	968.7929751507396	0.0	402.9814245051841	979.6238793676953	0.0	438.7862705251091	997.8066216261475	0.0	454.9764132193018	503.2692352725343	0.0	440.1174618861297	387.81020915700645	0.0	435.2915010313522	468.52392988498605	0.0	545.2031056013825	546.8690901864104	0.0	573.9159101055062	655.204560998333	0.0	543.7060922925377	705.3824249827851	0.0	376.2136925495665	571.1538951101194	0.0	361.0869675166151	697.2344434771593	0.0	361.31452755694784	786.7966867251887	0.0
